<svg viewBox="0 0 56 56" fill="none" xmlns="http://www.w3.org/2000/svg">
<path d="M49.0031 0H6.99692C3.13263 0 0 3.13263 0 6.99692V49.0031C0 52.8674 3.13263 56 6.99692 56H49.0031C52.8674 56 56 52.8674 56 49.0031V6.99692C56 3.13263 52.8674 0 49.0031 0Z" />
<path fill-rule="evenodd" clip-rule="evenodd" d="M13.19 16.6023H47.5184C48.1134 16.6023 48.5316 17.1878 48.3387 17.7507L43.6385 31.5805C43.521 31.9378 43.1874 32.1793 42.8113 32.1793H16.9034C16.5037 32.1793 16.1542 31.9097 16.0527 31.5231L12.3451 17.7015C12.1962 17.147 12.6159 16.6023 13.19 16.6023ZM19.101 28.2295C18.9497 27.6739 19.368 27.1264 19.9439 27.1264H39.4982C40.0991 27.1264 40.5206 27.719 40.3234 28.2867C40.2014 28.638 39.8702 28.8736 39.4982 28.8736H19.9439C19.5498 28.8736 19.2046 28.6097 19.101 28.2295ZM18.1515 24.7397C18.0031 24.1849 18.4211 23.6402 18.9954 23.6402H40.704C41.3049 23.6402 41.7264 24.2329 41.5292 24.8005C41.4072 25.1519 41.076 25.3874 40.704 25.3874H18.9954C18.5999 25.3874 18.2538 25.1217 18.1515 24.7397ZM17.1998 21.2249C17.0514 20.6677 17.4713 20.1213 18.0479 20.1213H43.096C43.1193 20.1213 43.1381 20.1401 43.1381 20.1634C43.1381 20.1681 43.1373 20.1727 43.1358 20.1772L43.0253 20.4965C42.7393 21.3226 41.9612 21.8766 41.087 21.8766H18.0479C17.6502 21.8766 17.3021 21.6092 17.1998 21.2249Z" fill="white"/>
<path d="M7.26758 13.2925C7.26758 12.8101 7.6587 12.4189 8.14117 12.4189H12.0683C12.4636 12.4189 12.8095 12.6849 12.9111 13.067L16.5593 26.6723C17.7314 31.0433 21.6927 34.0823 26.2181 34.0823H41.5761C42.174 34.0823 42.5952 34.6693 42.4037 35.2357C42.2837 35.5906 41.9508 35.8295 41.5761 35.8295H17.8795C17.4798 35.8295 17.1303 35.5599 17.0288 35.1733L11.8662 15.9C11.5923 14.8773 10.6655 14.1661 9.60672 14.1661H8.14117C7.6587 14.1661 7.26758 13.775 7.26758 13.2925Z" fill="white"/>
<path d="M19.8749 37.027C20.5254 37.0218 21.1626 37.211 21.7048 37.5704C22.247 37.9298 22.6694 38.4429 22.918 39.0441C23.1665 39.6452 23.2298 40.3068 23.0998 40.9442C22.9698 41.5815 22.6523 42.1655 22.1881 42.6212C21.7324 43.0854 21.1484 43.4029 20.5111 43.5329C19.8737 43.663 19.2121 43.5996 18.611 43.3511C18.0098 43.1025 17.4967 42.6801 17.1373 42.1379C16.7779 41.5957 16.5887 40.9585 16.5939 40.3081C16.5917 39.8766 16.6751 39.4489 16.8392 39.0499C17.0033 38.6508 17.2449 38.2882 17.55 37.9831C17.8551 37.678 18.2177 37.4364 18.6168 37.2723C19.0158 37.1082 19.4435 37.0248 19.8749 37.027ZM20.9495 39.2253C20.7372 39.0091 20.4651 38.8613 20.1681 38.8011C19.8712 38.7409 19.563 38.771 19.2833 38.8875C19.0036 39.004 18.7651 39.2015 18.5986 39.4547C18.4322 39.7079 18.3453 40.0051 18.3492 40.3081C18.347 40.6103 18.435 40.9064 18.6021 41.1583C18.7692 41.4102 19.0078 41.6064 19.2871 41.7219C19.5665 41.8373 19.874 41.8667 20.1702 41.8063C20.4663 41.7458 20.7377 41.5983 20.9495 41.3826C21.0921 41.2415 21.2053 41.0735 21.2826 40.8884C21.3598 40.7032 21.3996 40.5046 21.3996 40.3039C21.3996 40.1033 21.3598 39.9047 21.2826 39.7195C21.2053 39.5344 21.0921 39.3664 20.9495 39.2253Z" fill="white"/>
<path d="M41.1777 37.027C41.8281 37.0218 42.4653 37.211 43.0075 37.5704C43.5497 37.9298 43.9722 38.4429 44.2207 39.0441C44.4693 39.6452 44.5326 40.3068 44.4025 40.9442C44.2725 41.5815 43.955 42.1655 43.4908 42.6212C43.0352 43.0854 42.4512 43.4029 41.8138 43.5329C41.1765 43.663 40.5148 43.5996 39.9137 43.3511C39.3126 43.1025 38.7994 42.6801 38.44 42.1379C38.0806 41.5957 37.8914 40.9585 37.8966 40.3081C37.8944 39.8766 37.9778 39.4489 38.1419 39.0499C38.306 38.6508 38.5476 38.2882 38.8528 37.9831C39.1579 37.678 39.5204 37.4364 39.9195 37.2723C40.3186 37.1082 40.7462 37.0248 41.1777 37.027ZM42.2522 39.2253C42.0405 39.0061 41.7676 38.8558 41.4692 38.7939C41.1708 38.7321 40.8607 38.7614 40.5792 38.8783C40.2978 38.9951 40.058 39.194 39.8912 39.449C39.7243 39.704 39.6381 40.0034 39.6438 40.3081C39.6438 40.6103 39.7336 40.9056 39.9018 41.1567C40.07 41.4078 40.3089 41.6033 40.5883 41.7184C40.8678 41.8335 41.1751 41.863 41.4713 41.8033C41.7675 41.7435 42.0393 41.5971 42.2522 41.3826C42.3948 41.2415 42.508 41.0735 42.5853 40.8884C42.6626 40.7032 42.7024 40.5046 42.7024 40.3039C42.7024 40.1033 42.6626 39.9047 42.5853 39.7195C42.508 39.5344 42.3948 39.3664 42.2522 39.2253Z" fill="white"/>
</svg>
